<?xml version="1.0" encoding="UTF-8" standalone="no"?>
<svg
   xmlns:dc="http://purl.org/dc/elements/1.1/"
   xmlns:cc="http://creativecommons.org/ns#"
   xmlns:rdf="http://www.w3.org/1999/02/22-rdf-syntax-ns#"
   xmlns:svg="http://www.w3.org/2000/svg"
   xmlns="http://www.w3.org/2000/svg"
   id="svg40"
   version="1.1"
   style="overflow:visible"
   viewBox="-250 -250 500 500"
   height="2000px"
   width="2000px">
  <metadata
     id="metadata46">
    <rdf:RDF>
      <cc:Work
         rdf:about="">
        <dc:format>image/svg+xml</dc:format>
        <dc:type
           rdf:resource="http://purl.org/dc/dcmitype/StillImage" />
      </cc:Work>
    </rdf:RDF>
  </metadata>
  <defs
     id="defs44" />
  <rect
     id="rect2"
     fill-opacity="0"
     fill="rgb(0,0,0)"
     height="500"
     width="500"
     y="-250"
     x="-250" />
  <svg
     id="svg16"
     version="1.1"
     y="-250"
     x="-250"
     viewBox="-250 -250 500 500"
     height="500"
     width="500"
     style="overflow:visible">
    <g
       style="fill:#ffffff;stroke-linejoin:round"
       id="g14">
      <path
         style="fill:#ffffff;fill-opacity:1;stroke:none;stroke-linecap:butt;stroke-linejoin:round"
         id="path4"
         d="m -20.796,-196.9998 v 5.53557 c 0,0 -5.39053,1.97978 -5.39053,4.26988 0,2.29009 5.39053,4.27176 5.39053,4.27176 v 3.57059 c 0,0 -5.39053,1.98179 -5.39053,4.27176 0,2.29009 5.39053,4.27176 5.39053,4.27176 v 5.53356 h -6.26893 v 8.09042 h 6.03516 c 0,21.5621 -12.1747,36.1564 -23.4626,53.264 29.661,20.6084 59.3233,23.0929 88.9843,0 -11.2883,-17.1064 -23.4639,-31.7006 -23.4639,-53.264 h 6.03517 v -8.09042 h -6.26894 v -5.53356 c 0,0 5.39054,-1.98167 5.39054,-4.27176 0,-2.29009 -5.39054,-4.27176 -5.39054,-4.27176 v -3.57059 c 0,0 5.39054,-1.98167 5.39054,-4.27176 0,-2.29009 -5.39054,-4.26988 -5.39054,-4.26988 v -5.53557 z" />
      <path
         style="fill:#8c5252;fill-opacity:1;stroke:none;stroke-linecap:butt;stroke-linejoin:round"
         id="path6"
         d="m -44.489001,-103.921 c -9.74253,14.7649 -18.8265,31.3945 -18.8265,56.0659 v 2.25408 c 43.7148,26.132 85.9572,26.6452 126.636,0 v -2.25408 c 0,-24.6714 -9.08361,-41.3009 -18.8265,-56.0659 z" />
      <path
         style="fill:#ff3030;fill-opacity:1;stroke:none;stroke-linecap:butt;stroke-linejoin:round"
         id="path8"
         d="m -63.324001,-45.599 v 73.7808 c 42.9634,26.132 85.1906,26.6452 126.636,0 V -45.599 Z" />
      <path
         style="fill:#8c5252;fill-opacity:1;stroke:none;stroke-linecap:butt;stroke-linejoin:round"
         id="path10"
         d="m -63.324001,28.182 v 5.38914 c 0,23.8533 10.7974,45.5408 12.699,56.6431 3.21416,18.7627 1.9363,24.9311 -5.91727,39.0787 -7.85344,14.1476 -6.91281,32.6116 -3.96771,47.7354 2.9451,15.1238 11.9116,19.9735 18.0815,19.9735 9.72218,0 14.4244,-5.92806 22.777,-5.92806 3.70484,5.36504 8.68034,5.92806 19.6462,5.92806 10.9659,0 15.9411,-0.56302 19.6462,-5.92806 8.35272,0 13.0545,5.92806 22.777,5.92806 6.17014,0 15.1366,-4.85033 18.0815,-19.9735 2.9451,-15.1238 3.88573,-33.5878 -3.96772,-47.7354 -7.85343,-14.1476 -9.13333,-20.3161 -5.91917,-39.0787 1.90177,-11.1016 12.7016,-32.7898 12.7016,-56.6431 V 28.182 Z" />
      <path
         style="fill:none;stroke:#444444;stroke-width:6;stroke-linecap:butt;stroke-linejoin:round;stroke-opacity:1"
         id="path12"
         d="m -20.796,-196.9998 v 5.53557 c 0,0 -5.39053,1.97978 -5.39053,4.26988 0,2.29009 5.39053,4.27176 5.39053,4.27176 v 3.57059 c 0,0 -5.39053,1.98179 -5.39053,4.27176 0,2.29009 5.39053,4.27176 5.39053,4.27176 v 5.53356 h -6.26893 v 8.09042 h 6.03516 c 0,40.1729 -42.2892,56.0747 -42.2892,109.33 v 81.4236 c 0,23.8533 10.7974,45.5408 12.699,56.6431 3.21416,18.7627 1.9363,24.9311 -5.91727,39.0787 -7.85344,14.1476 -6.91281,32.6116 -3.9677,47.7354 2.9451,15.1238 11.9116,19.9735 18.0815,19.9735 9.72217,0 14.4244,-5.92806 22.777,-5.92806 3.70484,5.36504 8.68035,5.92806 19.6462,5.92806 10.96585,0 15.9412,-0.56302 19.6462,-5.92806 8.35272,0 13.0545,5.92806 22.777,5.92806 6.17014,0 15.1366,-4.85034 18.0815,-19.9735 2.9451,-15.1238 3.88573,-33.5878 -3.9677,-47.7354 -7.85344,-14.1476 -9.13333,-20.3161 -5.91917,-39.0787 1.90175,-11.1016 12.7016,-32.7898 12.7016,-56.6431 v -81.4236 c 0,-53.2552 -42.2904,-69.157 -42.2904,-109.33 h 6.03516 v -8.09042 h -6.26893 v -5.53356 c 0,0 5.39054,-1.98167 5.39054,-4.27176 0,-2.29009 -5.39054,-4.27176 -5.39054,-4.27176 v -3.57059 c 0,0 5.39054,-1.98167 5.39054,-4.27176 0,-2.29009 -5.39054,-4.26988 -5.39054,-4.26988 v -5.53557 z" />
    </g>
  </svg>
  <svg
     id="svg28"
     version="1.1"
     y="-436"
     x="-250"
     viewBox="-250 -250 500 500"
     height="500"
     width="500"
     style="overflow:visible">
    <g
       style="fill:#ffffff;stroke-linejoin:round"
       id="g26">
      <path
         style="fill:#ff3030;fill-opacity:1;stroke:none;stroke-linecap:butt;stroke-linejoin:round"
         id="path18"
         d="m -15.438282,-19.606642 c -6.356976,0 -11.475,4.795813 -11.475,10.751856 v 2.31924 c 19.765044,9.070869 37.150416,6.300041 53.826564,0 v -2.31924 c 0,-5.956055 -5.118042,-10.751857 -11.475,-10.751857 z" />
      <path
         style="fill:#ff3030;fill-opacity:1;stroke:none;stroke-linecap:butt;stroke-linejoin:round"
         id="path20"
         d="M -26.913282,-6.535546 V 6.535545 c 18.963846,5.993746 37.081571,7.023549 53.826564,0 V -6.535546 Z" />
      <path
         style="fill:#ff3030;fill-opacity:1;stroke:none;stroke-linecap:butt;stroke-linejoin:round"
         id="path22"
         d="M -26.913696,6.53543 H 26.913707 V 19.606262 H -26.913697 Z" />
      <path
         style="fill:none;stroke:#444444;stroke-width:6;stroke-linecap:butt;stroke-linejoin:round;stroke-opacity:1"
         id="path24"
         d="m -15.438601,-19.606247 c -6.356976,0 -11.475096,4.795329 -11.475096,10.751372 V 19.606261 H 26.913695 V -8.854876 c 0,-5.956055 -5.118126,-10.751389 -11.475084,-10.751389 z" />
    </g>
  </svg>
  <svg
     id="svg38"
     version="1.1"
     y="8"
     x="-58"
     viewBox="0 0 500 500"
     height="500"
     width="500"
     style="overflow:visible">
    <g
       id="g36"
       transform="scale(0.2)"
       style="font-style:normal;font-weight:900;font-size:200px;font-family:'Noto Sans JP Black';fill:#ffffff;fill-opacity:1;stroke:#000000;stroke-width:0;stroke-linecap:round;stroke-linejoin:round;stroke-opacity:0">
      <g
         id="text30"
         style=""
         aria-label="コ">
        <path
           id="path48"
           style=""
           d="m 177.4,6 c -0.6,-7.8 -1,-19.2 -1,-26 v -103.8 c 0,-6.6 0.4,-15.4 0.6,-20.2 -3,0.2 -12.6,0.6 -19,0.6 H 56 c -7.2,0 -18.4,-0.6 -26.4,-1.4 v 33.6 C 35.8,-111.6 47,-112 56,-112 h 86.6 v 76 h -89 C 44.2,-36 35,-36.6 27.2,-37.2 V -2.6 C 34.4,-3.4 47,-4 54.6,-4 h 87.8 l -0.2,10 z" />
      </g>
      <g
         id="text32"
         style=""
         aria-label="ー">
        <path
           id="path51"
           style=""
           d="m 207.2,-57.8 c 8.2,-0.6 23.2,-1.2 34.6,-1.2 H 348 c 8.2,0 19.4,1 24.6,1.2 V -96 c -5.8,0.4 -15.6,1.4 -24.6,1.4 H 241.8 c -9.8,0 -26.6,-0.8 -34.6,-1.4 z" />
      </g>
      <g
         id="text34"
         style=""
         aria-label="ラ">
        <path
           id="path54"
           style=""
           d="m 542.4,-108.2 c -3.2,1.4 -9.2,2.4 -16.8,2.4 h -95.2 c -6.8,0 -16.2,-0.6 -25.4,-1.4 V -76 c 9,-0.8 20.4,-1 25.4,-1 h 91 c -3.4,9.2 -8.8,19.2 -18.6,29 -14.4,14.4 -37.6,27.6 -68.8,34.2 l 24.2,27.4 c 25.6,-7.4 51.6,-22 71.4,-44.2 14.8,-16.6 23.2,-35.4 29.8,-54.6 0.8,-2.4 2.8,-6.6 4.4,-9.6 z m -118.6,-16.6 c 6,-0.6 15.6,-0.8 22.4,-0.8 h 75.4 c 7.6,0 18.4,0.4 24,0.8 V -156 c -5.8,0.8 -17.2,1.2 -23.6,1.2 h -75.8 c -7,0 -16.8,-0.4 -22.4,-1.2 z" />
      </g>
    </g>
  </svg>
</svg>
